/* XPM */
static char *a197m_g5c12_0[] = {
/* columns rows colors chars-per-pixel */
"32 32 32 1 ",
"  c None",
". c #242400",
"X c #252500",
"o c #555500",
"O c #5B5B00",
"+ c #5C5C00",
"@ c #5D5D00",
"# c #616100",
"$ c #636300",
"% c #646400",
"& c #656500",
"* c #676700",
"= c #696900",
"- c #6C6C00",
"; c #8F8F00",
": c #999900",
"> c #A8A800",
", c #ABAB00",
"< c #D6D600",
"1 c #E9E900",
"2 c #EAEA00",
"3 c #EBEB00",
"4 c #F0F000",
"5 c #F1F100",
"6 c #F2F200",
"7 c #F3F300",
"8 c #F4F400",
"9 c #F5F500",
"0 c #FCFC00",
"q c #FDFD00",
"w c #FEFE00",
"e c #FFFF00",
/* pixels */
"                                ",
"                                ",
"        e      ee               ",
"        e      ee     ee        ",
"        ee           ee         ",
"        ee           e          ",
"         e                      ",
"  ee                            ",
"   ee         eeee              ",
"    ee      eee66eee     eeee   ",
"     ee   eeee6::6eeee          ",
"          eeee2==2eeee          ",
"         eeeee2$$2eeeee         ",
"         eeeee2**2eeeee         ",
"        ee6222<OO<2126ee        ",
"   ee   e9>*++oXXoOO+;1e  eeee  ",
"   ee   e9>*O+o.Xo+++;2e  eeee  ",
"        ee6222<OO<2226ee        ",
"         eeeee2**2eeeee         ",
"         eeeee2*$2eeeee         ",
"          eeee2-=2eeee          ",
"   eee    eeee9>>9eeee    ee    ",
"    ee      eee99eee       e    ",
"              eeee         ee   ",
"                            e   ",
"          ee         ee         ",
"        eee    ee    ee         ",
"               ee     e         ",
"               ee               ",
"               ee               ",
"                                ",
"                                "
};
